<svg width="229" height="280" viewBox="0 0 229 280" fill="none" xmlns="http://www.w3.org/2000/svg">
<path d="M169.225 257.137C159.285 257.561 149.772 256.13 140.426 258.986C131.951 261.577 124.41 265.605 118.202 271.889C115.617 274.506 114.131 275.069 111.054 272.028C101.743 262.829 90.4732 257.36 77.143 257.201C61.9789 257.02 46.8107 257.02 31.6461 257.15C27.0467 257.189 25.1789 255.78 25.2208 250.813C25.4263 226.483 25.4079 202.149 25.2336 177.819C25.0809 156.509 32.1122 138.333 47.9326 123.818C55.218 117.133 63.5705 111.93 72.0044 106.862C79.9988 102.058 88.0959 97.4459 95.1488 91.2052C98.0038 88.6789 98.2476 87.1805 95.0636 84.7163C79.1293 72.3842 73.2347 55.8803 77.2279 36.4654C81.1464 17.4132 93.7989 5.87411 112.15 0.289917C113.574 -0.143219 113.577 -0.133179 117.249 0.609344C102.433 9.22537 93.3299 20.6245 94.1556 38.1585C94.5659 46.8712 97.0304 54.5637 102.742 61.0453C110.456 69.8001 120.144 74.3977 131.979 73.3015C143.617 72.2236 151.971 65.4074 159.287 56.5699C158.336 64.3261 154.778 70.4624 150.014 75.9857C145.303 81.4494 139.543 85.5735 132.16 88.386C138.009 94.8753 144.373 99.0245 150.826 103.068C160.985 109.434 171.506 115.295 180.405 123.469C195.519 137.352 203.784 154.179 203.479 175.13C203.115 200.123 203.383 225.126 203.342 250.125C203.331 256.89 203.121 257.061 196.224 257.092C187.391 257.131 178.558 257.124 169.225 257.137ZM99.2801 113.577C88.5275 121.167 76.3834 126.547 65.9387 134.637C53.9905 143.891 46.3227 155.787 45.8403 171.017C45.1763 191.981 45.5244 212.977 45.3831 233.959C45.362 237.084 46.979 237.955 49.7649 237.934C55.9262 237.889 62.089 238.032 68.2501 237.978C86.5207 237.818 101.755 244.116 113.086 258.847C113.467 259.343 114.025 259.703 114.719 260.321C116.483 258.297 118.088 256.426 119.724 254.582C128.594 244.586 139.92 239.741 153.056 238.598C161.2 237.889 169.362 237.799 177.51 238.054C182.194 238.201 183.996 236.708 183.938 231.818C183.729 214.334 183.673 196.843 183.953 179.361C184.28 159.025 176.113 143.426 159.305 132.015C148.564 124.723 136.63 119.259 126.712 110.74C122.833 107.408 119.161 103.837 115.015 100.025C110.065 104.737 105.44 109.527 99.2801 113.577Z" fill="black"/>
<path d="M0.0784727 251.965C0.0933657 235.967 0.0953492 220.469 0.126263 204.972C0.146557 194.82 5.81364 188.1 16.1567 185.963C17.881 187.544 17.2528 189.667 17.2547 191.574C17.2757 212.903 17.2303 234.233 17.2196 255.564C17.2164 261.754 17.4815 261.976 23.7107 262.051C42.7016 262.281 61.6989 261.644 80.6856 262.562C92.6157 263.138 101.503 269.133 109.309 277.481C107.542 279.885 105.545 279.227 103.84 279.227C71.1783 279.235 38.5164 279.128 5.85496 279.21C1.5775 279.22 -0.158161 277.884 0.0112425 273.459C0.278759 266.47 0.0795417 259.464 0.0784727 251.965Z" fill="#167914"/>
<path d="M228.386 251.965C228.377 259.796 228.301 267.129 228.391 274.46C228.432 277.731 227.342 279.334 223.781 279.325C190.122 279.241 156.462 279.259 122.803 279.232C121.839 279.232 120.779 279.375 120.041 278.416C119.498 277.269 120.264 276.513 120.979 275.849C129.536 267.901 139.144 262.506 151.3 262.614C169.294 262.775 187.293 262.553 205.286 262.784C209.836 262.842 211.192 261.414 211.397 256.845C212.384 234.856 211.724 212.87 211.775 190.884C211.778 189.265 211.195 187.549 212.607 186.206C221.535 187.158 228.424 194.445 228.427 202.975C228.434 219.138 228.402 235.302 228.386 251.965Z" fill="#167914"/>
</svg>
