<svg xmlns="http://www.w3.org/2000/svg" width="655.359" height="655.359" fill-rule="evenodd" clip-rule="evenodd" image-rendering="optimizeQuality" shape-rendering="geometricPrecision" text-rendering="geometricPrecision" viewBox="0 0 6.827 6.827" id="quran">
  <path fill-rule="nonzero" d="M1.407 4.409a.074.074 0 1 0 .142.038l.897-3.348 2.667.714a.074.074 0 1 0 .039-.142L2.413.938a.074.074 0 0 0-.09.052l-.916 3.419z"></path>
  <path fill-rule="nonzero" d="M4.145 5.143a.074.074 0 0 0 .142.038l.898-3.349.017.005a.247.247 0 0 1 .176.304l-.916 3.42a.074.074 0 0 0 .142.038l.916-3.42a.394.394 0 0 0-.28-.484l-.03-.008-.054-.014a.074.074 0 0 0-.095.05l-.916 3.42z"></path>
  <path fill-rule="nonzero" d="m1.497 4.357 2.827.757a.394.394 0 0 1 .28.485.394.394 0 0 1-.484.28v-.001l-2.812-.753a.4.4 0 0 1-.015-.004l.038-.142a.222.222 0 0 0 .176-.025.259.259 0 0 0 .112-.155.26.26 0 0 0-.02-.191.222.222 0 0 0-.14-.109l.038-.142zm2.79.9-2.54-.681a.41.41 0 0 1 .014.26.41.41 0 0 1-.143.22l2.54.68a.247.247 0 0 0 .304-.175.248.248 0 0 0-.176-.304zm.057-3.294-1.377-.37a.368.368 0 0 1-.35.204l-.553 2.06a.368.368 0 0 1 .203.35l1.376.37a.368.368 0 0 1 .351-.203l.552-2.06a.368.368 0 0 1-.202-.351zm-1.402-.528 1.503.403c.04.01.063.05.052.09a.22.22 0 0 0 .157.27c.039.01.062.05.052.09l-.587 2.188a.074.074 0 0 1-.09.052.22.22 0 0 0-.27.156.074.074 0 0 1-.09.052l-1.504-.403a.074.074 0 0 1-.052-.09.22.22 0 0 0-.156-.27.074.074 0 0 1-.052-.09l.586-2.188c.01-.04.051-.063.09-.052a.22.22 0 0 0 .27-.156c.011-.04.051-.063.09-.052z"></path>
  <path fill-rule="nonzero" d="M3.48 2.434a.754.754 0 0 1-.134.047.573.573 0 0 0-.106.037.073.073 0 0 1-.054.006c-.034-.007-.07-.007-.107-.008-.045 0-.09 0-.14-.01-.018.048-.04.088-.062.127-.019.033-.038.066-.049.101.004.01-.025.038-.035.043a.593.593 0 0 0-.08.07c-.032.031-.065.063-.107.092a.75.75 0 0 1 .046.133.56.56 0 0 0 .037.107c.01-.003.007.048.006.053-.007.035-.007.07-.007.108 0 .044-.001.09-.01.14.048.017.087.04.126.062.034.019.066.037.101.048.01-.003.038.026.043.036.02.028.045.054.07.08.031.032.063.064.092.107.047-.023.09-.035.134-.047a.559.559 0 0 0 .106-.037c-.003-.009.048-.007.053-.005.035.006.071.007.108.007.045 0 .09 0 .14.01.017-.048.04-.088.062-.127.019-.033.037-.066.049-.1-.004-.01.025-.038.035-.043a.593.593 0 0 0 .08-.07.68.68 0 0 1 .126-.105.185.185 0 0 1-.015-.03 3.155 3.155 0 0 0-.088-.197.073.073 0 0 1-.005-.054c.007-.034.007-.07.007-.107 0-.045 0-.09.01-.14-.048-.018-.088-.04-.126-.062-.034-.02-.067-.038-.102-.05v.001a.073.073 0 0 1-.042-.035c-.02-.029-.045-.054-.07-.08-.032-.032-.064-.065-.093-.108zm-.173-.094c.05-.015.102-.03.152-.063a.073.073 0 0 1 .118.033.481.481 0 0 0 .1.129.773.773 0 0 1 .076.087c.039.015.072.033.105.052a.477.477 0 0 0 .152.063.074.074 0 0 1 .062.1c-.016-.006-.023.154-.023.168 0 .038 0 .076-.007.116.02.042.056.122.082.187.016.04.028.076.032.105a.073.073 0 0 1-.04.085c-.012-.011-.124.09-.136.103-.027.027-.054.053-.087.077a.777.777 0 0 1-.053.105.477.477 0 0 0-.063.152.074.074 0 0 1-.099.062c.006-.016-.155-.023-.168-.023-.039 0-.076-.001-.117-.007-.038.016-.074.026-.11.036a.477.477 0 0 0-.164.071.074.074 0 0 1-.103-.034.466.466 0 0 0-.102-.135.773.773 0 0 1-.078-.087c-.038-.015-.07-.034-.104-.053a.477.477 0 0 0-.152-.063.074.074 0 0 1-.062-.1.467.467 0 0 0 .023-.168c0-.038 0-.075.007-.116a.773.773 0 0 1-.037-.11c-.014-.051-.028-.103-.062-.153a.074.074 0 0 1 .025-.114c.058-.026.098-.065.136-.103a.773.773 0 0 1 .087-.077.778.778 0 0 1 .052-.104c.043-.076.038-.217.143-.214.056.001.143.022.188.023.038 0 .076 0 .117.007.038-.017.073-.027.11-.037zm.292.744-.117-.204-.227-.06-.204.117-.06.227.117.203.227.061.203-.117.061-.227zm.143-.08c.012.04.016.054.007.088l-.076.286a.073.073 0 0 1-.035.045l-.255.147a.073.073 0 0 1-.057.008l-.286-.077s-.042-.03-.044-.034l-.148-.256a.073.073 0 0 1-.007-.056l.076-.286s.03-.042.034-.044l.256-.148a.073.073 0 0 1 .056-.008l.286.077c.052.014.16.208.193.259zm.46 2.563a.074.074 0 1 0 .039-.142L2.539 4.97a.074.074 0 1 0-.038.142l1.702.456z"></path>
  <path fill="none" d="M0 0h6.827v6.827H0z"></path>
</svg>
